<svg width="35" height="35" viewBox="0 0 35 35" fill="none" xmlns="http://www.w3.org/2000/svg">
<path d="M21.8393 17.4634C22.7095 18.3482 23.1957 19.406 23.5439 20.8523L23.7113 21.6243L23.851 22.3673C24.0316 23.3412 24.1402 23.785 24.2998 24.1401C24.716 25.0667 25.4577 26.0273 26.5392 27.0115C27.1327 27.5519 27.1725 28.4677 26.6281 29.0573C26.0837 29.6469 25.1613 29.687 24.5677 29.1467C23.2104 27.9113 22.2283 26.6395 21.636 25.3209C21.4063 24.8096 21.2689 24.3339 21.1088 23.547L20.8337 22.1053L20.7826 21.8598C20.5326 20.6914 20.2309 19.9741 19.752 19.487C18.8788 18.5991 16.7596 18.8466 16.2425 19.6582C15.4824 20.8514 15.2832 22.927 15.9052 25.0324C16.4011 26.7114 17.0596 28.3641 17.8814 29.9912C18.2423 30.7059 17.9512 31.5761 17.2312 31.9347C16.5111 32.2935 15.6349 32.0049 15.274 31.2901C14.3748 29.5097 13.652 27.6956 13.1064 25.8488C12.2602 22.9846 12.5419 20.0511 13.7779 18.111C15.2931 15.7328 19.6385 15.2254 21.8393 17.4634ZM18.1896 20.5638C18.9945 20.5371 19.6688 21.168 19.6955 21.9729C19.7683 24.158 20.4789 26.2706 21.7351 28.0518L22.0125 28.4282L22.4503 28.9971C22.9416 29.6352 22.8225 30.5509 22.1842 31.0422C21.595 31.4956 20.7694 31.429 20.2596 30.914L20.139 30.7759L19.7012 30.2072C17.9002 27.8671 16.8786 25.0211 16.7805 22.0698C16.7538 21.2648 17.3846 20.5906 18.1896 20.5638ZM12.5026 13.4007C15.7122 11.0243 19.9045 11.1531 22.735 12.9724C24.1369 13.8736 25.2047 14.9304 25.9182 16.1475C26.3257 16.8423 26.0926 17.7358 25.3977 18.1431C24.703 18.5504 23.8095 18.3174 23.4022 17.6226C22.9346 16.8252 22.1932 16.0914 21.1579 15.426C19.2914 14.2262 16.4089 14.1377 14.2382 15.7449C11.9639 17.4287 10.9995 20.3338 11.2882 23.4121C11.4516 25.1549 11.9779 26.9204 12.8747 28.7137C13.2349 29.4341 12.943 30.3101 12.2226 30.6704C11.5023 31.0306 10.6263 30.7386 10.266 30.0183C9.21236 27.9113 8.58249 25.7982 8.38426 23.6845C8.0083 19.6755 9.30561 15.7678 12.5026 13.4007ZM27.922 20.9246C27.964 21.742 28.1625 22.3984 28.506 22.9199C28.8293 23.4105 29.0875 23.6426 29.2177 23.682C29.9887 23.9151 30.4246 24.7291 30.1916 25.5C29.9585 26.271 29.1445 26.7069 28.3736 26.4739C27.4814 26.2041 26.7347 25.5326 26.0706 24.5248C25.4269 23.548 25.0768 22.3892 25.0092 21.0745C24.9678 20.2701 25.5863 19.5845 26.3907 19.5431C27.195 19.5019 27.8806 20.1203 27.922 20.9246ZM15.2616 8.68289C15.5922 9.41733 15.2648 10.2807 14.5303 10.6113C11.9145 11.7886 9.99875 13.4586 8.74106 15.6363C7.16248 18.3696 6.73506 21.5771 7.08891 24.2732C7.19371 25.0718 6.6313 25.8042 5.83273 25.9089C5.03416 26.0138 4.30185 25.4514 4.19704 24.6528C3.76624 21.3703 4.27762 17.5328 6.21534 14.1776C7.78871 11.4533 10.1753 9.37293 13.3332 7.95159C14.0677 7.62102 14.931 7.94843 15.2616 8.68289ZM18.8541 7.17805C21.618 7.23469 24.3536 8.49753 27.0495 10.8961C29.7758 13.3218 31.4176 16.617 31.9726 20.7156C32.0807 21.5138 31.5213 22.2485 30.7233 22.3565C29.9251 22.4646 29.1904 21.9052 29.0824 21.107C28.6173 17.6733 27.2943 15.0179 25.1107 13.0752C22.8967 11.1053 20.7951 10.1351 18.7943 10.0941C17.989 10.0776 17.3496 9.41144 17.3661 8.60619C17.3826 7.80096 18.0488 7.16155 18.8541 7.17805ZM8.18227 7.51364C8.71794 8.1151 8.66461 9.03693 8.06316 9.5726C7.68336 9.91086 7.28301 10.3165 6.86366 10.7892C6.47823 11.2237 6.07923 11.7936 5.67242 12.4979C5.26958 13.1954 4.37764 13.4342 3.6802 13.0314C2.98277 12.6285 2.74394 11.7366 3.14677 11.0391C3.64611 10.1746 4.15587 9.44649 4.68179 8.85363C5.17378 8.29901 5.65378 7.81271 6.12332 7.39454C6.72478 6.85886 7.64659 6.91219 8.18227 7.51364ZM18.2239 2.94252C21.4933 3.09566 24.5255 3.81054 26.7759 5.54823C27.4133 6.04049 27.5311 6.95632 27.0388 7.5938C26.5466 8.23127 25.6308 8.34899 24.9932 7.85673C23.2393 6.50226 20.7831 5.98226 18.0874 5.85598C15.381 5.72921 13.1795 6.20967 11.45 7.27194C10.7637 7.69345 9.86561 7.4788 9.44409 6.79249C9.02257 6.10619 9.23721 5.20813 9.92352 4.7866C12.1875 3.39611 14.9653 2.78988 18.2239 2.94252Z" fill="#F1F2F5"/>
</svg>
